<?xml version="1.0" encoding="UTF-8"?>
<svg xmlns="http://www.w3.org/2000/svg" height="400" width="550">
   <g transform="translate(30,330)">
      <text x="-10" y="0" fill="black" font-size="12">0%</text>
      <text x="-10" y="-50" fill="black" font-size="12">25%</text>
      <text x="-10" y="-100" fill="black" font-size="12">50%</text>
      <text x="-10" y="-150" fill="black" font-size="12">75%</text>
      <text x="-15" y="-200" fill="black" font-size="12">100%</text>
      <line x1="20"
            x2="610"
            y1="-50"
            y2="-50"
            stroke="black"
            opacity="0.5"
            stroke-dasharray="2"
            stroke-width="0.5"/>
      <line x1="20"
            x2="610"
            y1="-100"
            y2="-100"
            stroke="black"
            opacity="0.5"
            stroke-dasharray="2"
            stroke-width="0.5"/>
      <line x1="20"
            x2="610"
            y1="-150"
            y2="-150"
            stroke="black"
            opacity="0.5"
            stroke-dasharray="2"
            stroke-width="0.5"/>
      <line x1="20"
            x2="610"
            y1="-200"
            y2="-200"
            stroke="black"
            opacity="0.5"
            stroke-dasharray="2"
            stroke-width="0.5"/>
      <rect x="60" y="-0" height="0" width="20" fill="#75333a"/>
      <rect x="60" y="0" height="0" width="20" fill="#a25c29"/>
      <rect x="60" y="-200" height="200" width="20" fill="#446460"/>
      <text x="55" y="20" fill="black" font-size="12">LAZY</text>
      <text x="30" y="35" fill="black" font-size="12">DAUGHTER</text>
      <text x="45" y="50" fill="black" font-size="10">(ENGLISH)</text>
      <rect x="120" y="-0" height="0" width="20" fill="#75333a"/>
      <rect x="120" y="0" height="0" width="20" fill="#a25c29"/>
      <rect x="120" y="-200" height="200" width="20" fill="#446460"/>
      <text x="115" y="20" fill="black" font-size="12">LAZY</text>
      <text x="100" y="35" fill="black" font-size="12">DAUGHTER</text>
      <text x="105" y="50" fill="black" font-size="10">(GERMAN)</text>
      <rect x="220" y="-0" height="0" width="20" fill="#75333a"/>
      <rect x="220" y="0" height="0" width="20" fill="#a25c29"/>
      <rect x="220" y="-200" height="200" width="20" fill="#446460"/>
      <text x="195" y="20" fill="black" font-size="12">BEAUTIFUL</text>
      <text x="190" y="35" fill="black" font-size="12">DAUGHTER</text>
      <text x="200" y="50" fill="black" font-size="10">(ENGLISH)</text>
      <rect x="280" y="-0" height="0" width="20" fill="#75333a"/>
      <rect x="280" y="0" height="0" width="20" fill="#a25c29"/>
      <rect x="280" y="-200" height="200" width="20" fill="#446460"/>
      <text x="265" y="20" fill="black" font-size="12">BEAUTIFUL</text>
      <text x="267" y="35" fill="black" font-size="12">DAUGHTER</text>
      <text x="265" y="50" fill="black" font-size="10">(GERMAN)</text>
      <rect x="380" y="-150" height="150" width="20" fill="#75333a"/>
      <rect x="380" y="-150" height="0" width="20" fill="#a25c29"/>
      <rect x="380" y="-200" height="50" width="20" fill="#446460"/>
      <text x="368" y="20" fill="black" font-size="12">FRAU</text>
      <text x="367" y="35" fill="black" font-size="12">HOLLE</text>
      <text x="365" y="50" fill="black" font-size="10">(GERMAN)</text>
      <rect x="440" y="-200" height="200" width="20" fill="#75333a"/>
      <rect x="440" y="-200" height="0" width="20" fill="#a25c29"/>
      <rect x="440" y="-200" height="0" width="20" fill="#446460"/>
      <text x="428" y="20" fill="black" font-size="12">FRAU</text>
      <text x="427" y="35" fill="black" font-size="12">HOLLE</text>
      <text x="425" y="50" fill="black" font-size="10">(GERMAN)</text>
      <rect x="150" y="-230" height="10" width="10" fill="#75333a"/>
      <text x="165" y="-220" fill="black" font-size="12">POSITIVE</text>
      <rect x="240" y="-230" height="10" width="10" fill="#a25c29"/>
      <text x="255" y="-220" fill="black" font-size="12">NEUTRAL</text>
      <rect x="330" y="-230" height="10" width="10" fill="#446460"/>
      <text x="345" y="-220" fill="black" font-size="12">NEGATIVE</text>
      <text transform="rotate(270)"
            style="text-anchor:end;"
            x="180"
            y="-15"
            color="black"
            font-size="12">% OF TYPES OF DIALOGUE</text>
      <text x="110" y="-270" fill="black" font-size="14">FRAU HOLLE: TYPES OF DIALOGUE
            SPOKEN</text>
      <text x="140" y="-255" fill="black" font-size="14">BY DAUGHTERS AND FRAU HOLLE</text>
      <line x1="20"
            x2="20"
            y1="0"
            y2="-200"
            stroke="black"
            stroke-width="1"/>
      <line x1="20"
            x2="610"
            y1="0"
            y2="0"
            stroke="black"
            stroke-width="1"/>
   </g>
</svg>
