<?xml version="1.0" encoding="UTF-8"?>
<svg xmlns="http://www.w3.org/2000/svg" height="400">
   <g transform="translate(30,330)">
      <text x="-10" y="0" fill="black" font-size="12">0%</text>
      <text x="-10" y="-50" fill="black" font-size="12">25%</text>
      <text x="-10" y="-100" fill="black" font-size="12">50%</text>
      <text x="-10" y="-150" fill="black" font-size="12">75%</text>
      <text x="-15" y="-200" fill="black" font-size="12">100%</text>
      <line x1="20"
            x2="610"
            y1="-50"
            y2="-50"
            stroke="black"
            opacity="0.5"
            stroke-dasharray="2"
            stroke-width="0.5"/>
      <line x1="20"
            x2="610"
            y1="-100"
            y2="-100"
            stroke="black"
            opacity="0.5"
            stroke-dasharray="2"
            stroke-width="0.5"/>
      <line x1="20"
            x2="610"
            y1="-150"
            y2="-150"
            stroke="black"
            opacity="0.5"
            stroke-dasharray="2"
            stroke-width="0.5"/>
      <line x1="20"
            x2="610"
            y1="-200"
            y2="-200"
            stroke="black"
            opacity="0.5"
            stroke-dasharray="2"
            stroke-width="0.5"/>
      <rect x="60" y="-0" height="0" width="20" fill="#75333a"/>
      <rect x="60" y="-200" height="200" width="20" fill="#a25c29"/>
      <rect x="60" y="-200" height="0" width="20" fill="#446460"/>
      <text x="45" y="20" fill="black" font-size="12">FIRST</text>
      <text x="40" y="35" fill="black" font-size="12">QUEEN</text>
      <text x="40" y="50" fill="black" font-size="10">(ENGLISH)</text>
      <rect x="120"
            y="-35.294117647058826"
            height="35.294117647058826"
            width="20"
            fill="#75333a"/>
      <rect x="120"
            y="-176.47058823529412"
            height="141.1764705882353"
            width="20"
            fill="#a25c29"/>
      <rect x="120"
            y="-200"
            height="23.529411764705884"
            width="20"
            fill="#446460"/>
      <text x="112" y="20" fill="black" font-size="12">FIRST</text>
      <text x="110" y="35" fill="black" font-size="12">QUEEN</text>
      <text x="105" y="50" fill="black" font-size="10">(GERMAN)</text>
      <rect x="220"
            y="-45.45454545454545"
            height="45.45454545454545"
            width="20"
            fill="#75333a"/>
      <rect x="220"
            y="-90.9090909090909"
            height="45.45454545454545"
            width="20"
            fill="#a25c29"/>
      <rect x="220"
            y="-200"
            height="109.0909090909091"
            width="20"
            fill="#446460"/>
      <text x="200" y="20" fill="black" font-size="12">SECOND</text>
      <text x="205" y="35" fill="black" font-size="12">QUEEN</text>
      <text x="200" y="50" fill="black" font-size="10">(ENGLISH)</text>
      <rect x="280"
            y="-35.294117647058826"
            height="35.294117647058826"
            width="20"
            fill="#75333a"/>
      <rect x="280"
            y="-176.47058823529412"
            height="141.1764705882353"
            width="20"
            fill="#a25c29"/>
      <rect x="280"
            y="-200"
            height="23.529411764705884"
            width="20"
            fill="#446460"/>
      <text x="265" y="20" fill="black" font-size="12">SECOND</text>
      <text x="267" y="35" fill="black" font-size="12">QUEEN</text>
      <text x="265" y="50" fill="black" font-size="10">(GERMAN)</text>
      <rect x="60" y="-230" height="10" width="10" fill="#75333a"/>
      <text x="70" y="-220" fill="black" font-size="12">POSITIVE</text>
      <rect x="150" y="-230" height="10" width="10" fill="#a25c29"/>
      <text x="160" y="-220" fill="black" font-size="12">NEUTRAL</text>
      <rect x="240" y="-230" height="10" width="10" fill="#446460"/>
      <text x="250" y="-220" fill="black" font-size="12">NEGATIVE</text>
      <text transform="rotate(270)"
            style="text-anchor:end;"
            x="180"
            y="-15"
            color="black"
            font-size="12">% OF TYPES OF DIALOGUE</text>
      <text x="10" y="-270" fill="black" font-size="14">LITTLE SNOW WHITE: TYPES OF DIALOGUE SPOKEN</text>
      <text x="50" y="-255" fill="black" font-size="14">BY MOTHERS AND STEPMOTHERS</text>
      <line x1="20"
            x2="20"
            y1="0"
            y2="-200"
            stroke="black"
            stroke-width="1"/>
      <line x1="20"
            x2="610"
            y1="0"
            y2="0"
            stroke="black"
            stroke-width="1"/>
   </g>
</svg>
