<?xml version="1.0" encoding="UTF-8"?>
<svg xmlns="http://www.w3.org/2000/svg" height="1000" width="2000">
   <line x1="100"
         y1="800"
         x2="1500"
         y2="800"
         stroke="black"
         stroke-width="2"/>
   <line x1="100"
         y1="800"
         x2="100"
         y2="500"
         stroke="black"
         stroke-width="2"/>
   <line x1="100"
         y1="750"
         x2="1500"
         y2="750"
         stroke="gray"
         stroke-width="1"/>
   <line x1="100"
         y1="700"
         x2="1500"
         y2="700"
         stroke="gray"
         stroke-width="1"/>
   <line x1="100"
         y1="650"
         x2="1500"
         y2="650"
         stroke="gray"
         stroke-width="1"/>
   <line x1="100"
         y1="600"
         x2="1500"
         y2="600"
         stroke="gray"
         stroke-width="1"/>
   <line x1="100"
         y1="550"
         x2="1500"
         y2="550"
         stroke="gray"
         stroke-width="1"/>
   <line x1="100"
         y1="500"
         x2="1500"
         y2="500"
         stroke="gray"
         stroke-width="1"/>
   <text x="65" y="800" fill="gray">0%</text>
   <text x="65" y="750" fill="gray">10%</text>
   <text x="65" y="700" fill="gray">20%</text>
   <text x="65" y="650" fill="gray">30%</text>
   <text x="65" y="600" fill="gray">40%</text>
   <text x="65" y="550" fill="gray">50%</text>
   <text x="65" y="500" fill="gray">60%</text>
   <text x="600" y="450" fill="black" font-size="30">Judicial</text>
   <text x="600" y="850" fill="black" font-size="20">Federalist Paper</text>
   <text x="30"
         y="555"
         fill="black"
         writing-mode="tb"
         font-size="20">Topic Relevance</text>
   <rect width="40"
         height="0"
         fill="goldenrod"
         stroke="black"
         stroke-width="1"
         x="160"
         y="800"/>
   <text x="170" y="820" fill="black">Cinderella_English</text>
   <rect width="40"
         height="0"
         fill="goldenrod"
         stroke="black"
         stroke-width="1"
         x="210"
         y="800"/>
   <text x="220" y="820" fill="black">Frau-Holle_English</text>
   <rect width="40"
         height="60"
         fill="goldenrod"
         stroke="black"
         stroke-width="1"
         x="260"
         y="740"/>
   <text x="270" y="820" fill="black">Hansel-Gretel_English</text>
   <rect width="40"
         height="25"
         fill="goldenrod"
         stroke="black"
         stroke-width="1"
         x="310"
         y="775"/>
   <text x="320" y="820" fill="black">Little-Red-Cap_English</text>
   <rect width="40"
         height="25"
         fill="goldenrod"
         stroke="black"
         stroke-width="1"
         x="360"
         y="775"/>
   <text x="370" y="820" fill="black">Little-Snow-White_English</text>
   <rect width="40"
         height="0"
         fill="goldenrod"
         stroke="black"
         stroke-width="1"
         x="410"
         y="800"/>
   <text x="420" y="820" fill="black">Rapunzel_English</text>
   <rect width="40"
         height="5"
         fill="goldenrod"
         stroke="black"
         stroke-width="1"
         x="460"
         y="795"/>
   <text x="470" y="820" fill="black">Sweetheart-Roland_English</text>
   <rect width="40"
         height="5"
         fill="goldenrod"
         stroke="black"
         stroke-width="1"
         x="510"
         y="795"/>
   <text x="520" y="820" fill="black">The-Juniper-Tree_English</text>
   <rect width="40"
         height="55"
         fill="goldenrod"
         stroke="black"
         stroke-width="1"
         x="560"
         y="745"/>
   <text x="570" y="820" fill="black">The-Six-Swans_English</text>
   <rect width="40"
         height="35.00000000000001"
         fill="goldenrod"
         stroke="black"
         stroke-width="1"
         x="610"
         y="765"/>
   <text x="620" y="820" fill="black">The-Twelve-Brothers_English</text>
</svg>
